<svg width="21" height="21" viewBox="0 0 21 21" fill="none" xmlns="http://www.w3.org/2000/svg">
<path d="M19.8853 5.6395C19.6673 4.81832 19.0247 4.17158 18.2088 3.9521C16.73 3.55328 10.8001 3.55328 10.8001 3.55328C10.8001 3.55328 4.87024 3.55328 3.39138 3.9521C2.57551 4.17162 1.93294 4.81832 1.71485 5.6395C1.3186 7.12794 1.3186 10.2334 1.3186 10.2334C1.3186 10.2334 1.3186 13.3389 1.71485 14.8273C1.93294 15.6485 2.57551 16.2683 3.39138 16.4878C4.87024 16.8866 10.8001 16.8866 10.8001 16.8866C10.8001 16.8866 16.73 16.8866 18.2088 16.4878C19.0247 16.2683 19.6673 15.6485 19.8853 14.8273C20.2816 13.3389 20.2816 10.2334 20.2816 10.2334C20.2816 10.2334 20.2816 7.12794 19.8853 5.6395ZM8.86069 13.053V7.41387L13.8169 10.2335L8.86069 13.053Z" fill="white"/>
</svg>
