<svg width="21" height="17" viewBox="0 0 21 17" fill="none" xmlns="http://www.w3.org/2000/svg">
<path d="M18.7442 4.14635C18.7569 4.324 18.7569 4.5017 18.7569 4.67936C18.7569 10.0981 14.6325 16.3418 7.09446 16.3418C4.77212 16.3418 2.61478 15.6692 0.800049 14.5017C1.13001 14.5397 1.44724 14.5524 1.78989 14.5524C3.7061 14.5524 5.47009 13.9053 6.87872 12.8012C5.07669 12.7631 3.56653 11.5829 3.04622 9.95854C3.30005 9.99658 3.55384 10.022 3.82036 10.022C4.18837 10.022 4.55642 9.97119 4.89903 9.8824C3.02087 9.50166 1.6122 7.85193 1.6122 5.85955V5.80881C2.15786 6.11338 2.79243 6.30373 3.46497 6.32908C2.36091 5.59303 1.63759 4.3367 1.63759 2.91537C1.63759 2.15396 1.8406 1.456 2.19595 0.846855C4.21372 3.33416 7.24673 4.9585 10.6477 5.13619C10.5843 4.83162 10.5462 4.51439 10.5462 4.19713C10.5462 1.93822 12.3736 0.0981445 14.6452 0.0981445C15.8254 0.0981445 16.8913 0.593066 17.6401 1.39256C18.5665 1.2149 19.4548 0.872246 20.2416 0.402715C19.937 1.35451 19.2898 2.154 18.4396 2.66158C19.2645 2.57279 20.064 2.34432 20.8 2.02709C20.2417 2.83924 19.5437 3.56256 18.7442 4.14635Z" fill="white"/>
</svg>
